<svg width="100" height="100" viewBox="0 0 100 100" xmlns="http://www.w3.org/2000/svg">
  <!-- Outer circle (coral/orange background) -->
  <circle cx="50" cy="50" r="45" fill="#FF6B6B" stroke="#E55A5A" stroke-width="2"/>
  
  <!-- Inner circle (clock face) -->
  <circle cx="50" cy="50" r="35" fill="#FFF8DC" stroke="#FFE4B5" stroke-width="1"/>
  
  <!-- Hour markers -->
  <g stroke="#333" stroke-width="2" stroke-linecap="round">
    <!-- 12 o'clock -->
    <line x1="50" y1="18" x2="50" y2="22"/>
    <!-- 3 o'clock -->
    <line x1="82" y1="50" x2="78" y2="50"/>
    <!-- 6 o'clock -->
    <line x1="50" y1="82" x2="50" y2="78"/>
    <!-- 9 o'clock -->
    <line x1="18" y1="50" x2="22" y2="50"/>
  </g>
  
  <!-- Smaller hour markers -->
  <g stroke="#666" stroke-width="1" stroke-linecap="round">
    <!-- 1 o'clock -->
    <line x1="65.5" y1="23.5" x2="64" y2="25"/>
    <!-- 2 o'clock -->
    <line x1="76.5" y1="34.5" x2="75" y2="36"/>
    <!-- 4 o'clock -->
    <line x1="76.5" y1="65.5" x2="75" y2="64"/>
    <!-- 5 o'clock -->
    <line x1="65.5" y1="76.5" x2="64" y2="75"/>
    <!-- 7 o'clock -->
    <line x1="34.5" y1="76.5" x2="36" y2="75"/>
    <!-- 8 o'clock -->
    <line x1="23.5" y1="65.5" x2="25" y2="64"/>
    <!-- 10 o'clock -->
    <line x1="23.5" y1="34.5" x2="25" y2="36"/>
    <!-- 11 o'clock -->
    <line x1="34.5" y1="23.5" x2="36" y2="25"/>
  </g>
  
  <!-- Clock hands -->
  <!-- Hour hand pointing to 8 -->
  <line x1="50" y1="50" x2="35" y2="62" stroke="#333" stroke-width="3" stroke-linecap="round"/>
  
  <!-- Minute hand pointing to 12 -->
  <line x1="50" y1="50" x2="50" y2="25" stroke="#333" stroke-width="2" stroke-linecap="round"/>
  
  <!-- Center dot -->
  <circle cx="50" cy="50" r="3" fill="#333"/>
</svg>